# xmcd CD database file
#
# Track frame offsets:
#	150
#	20388
#	49418
#	71180
#	102252
#	115210
#	130205
#	151410
#	177427
#	194339
#	205238
#	224277
#	245760
#	258603
#	273110
#	301469
#
# Disc length: 4450 seconds
#
# Revision: 1
# Processed by: cddbd v1.5.2PL0 Copyright (c) Steve Scherf et al.
# Submitted via: CDex 1.70beta2
#
DISCID=f5116010
DTITLE=Paolo Fresu 5et - Kosmopolites
DYEAR=1900
DGENRE=Jazz
TTITLE0=In Viaggio
TTITLE1=Kosmopolites
TTITLE2=Spazi Provvisori 1
TTITLE3=In Stretta Vicinanza
TTITLE4=Calasetta
TTITLE5=Hush Please!
TTITLE6=Negi Occhi
TTITLE7=Visions
TTITLE8=Echoes 1
TTITLE9=Spazi Provvisori 2
TTITLE10=The Ride
TTITLE11=Echoes 2
TTITLE12=Variazione 12
TTITLE13=The Silent Trade
TTITLE14=Lascia Ch'io Pianga
TTITLE15=Audio
EXTD=
EXTT0=
EXTT1=
EXTT2=
EXTT3=
EXTT4=
EXTT5=
EXTT6=
EXTT7=
EXTT8=
EXTT9=
EXTT10=
EXTT11=
EXTT12=
EXTT13=
EXTT14=
EXTT15=
PLAYORDER=
